<svg xmlns="http://www.w3.org/2000/svg" viewBox="0 0 306.96 96" role="img" aria-labelledby="title">
  <title id="title">dopejs</title>
  <rect width="306.96" height="96" rx="14" fill="#08090a"/>
  <g transform="translate(16,16) scale(2)">
    <rect width="32" height="32" rx="7" fill="#b6ff3b"/>
    <g transform="translate(-0.95,2.4) scale(0.85)"><path d="M20.6 7v18h-3.1v-1.9c-.9 1.4-2.4 2.2-4.3 2.2-3.7 0-6.2-2.9-6.2-7.1s2.5-7.1 6.2-7.1c1.9 0 3.4.8 4.3 2.2V7h3.1Zm-6.8 15.4c2.2 0 3.8-1.7 3.8-4.2s-1.6-4.2-3.8-4.2-3.7 1.7-3.7 4.2 1.5 4.2 3.7 4.2Z" fill="#08090a"/></g>
    <rect x="20.6" y="14.15" width="6.5" height="9.5" fill="#08090a"/>
  </g>
  <path d="M116.60 63.74L116.60 63.74Q113.08 63.74 110.90 61.23Q108.72 58.72 108.72 54.50L108.72 54.50L108.72 47.94Q108.72 43.68 110.88 41.17Q113.04 38.66 116.60 38.66L116.60 38.66Q119.11 38.66 120.85 39.94Q122.58 41.21 123.29 43.50L123.29 43.50L123.11 37.96L123.11 31.18L128.61 31.18L128.61 63.30L123.24 63.30L123.24 58.90Q122.58 61.19 120.87 62.46Q119.15 63.74 116.60 63.74ZM118.67 58.99L118.67 58.99Q120.78 58.99 121.95 57.71Q123.11 56.44 123.11 54.10L123.11 54.10L123.11 48.30Q123.11 45.96 121.95 44.69Q120.78 43.41 118.67 43.41L118.67 43.41Q116.56 43.41 115.39 44.56Q114.22 45.70 114.22 48.08L114.22 48.08L114.22 54.32Q114.22 56.70 115.39 57.84Q116.56 58.99 118.67 58.99ZM145.20 63.70L145.20 63.70Q140.54 63.70 137.81 61.08Q135.08 58.46 135.08 54.02L135.08 54.02L135.08 48.38Q135.08 43.90 137.81 41.30Q140.54 38.70 145.20 38.70L145.20 38.70Q149.86 38.70 152.59 41.30Q155.32 43.90 155.32 48.38L155.32 48.38L155.32 54.02Q155.32 58.46 152.59 61.08Q149.86 63.70 145.20 63.70ZM145.20 58.90L145.20 58.90Q147.40 58.90 148.61 57.69Q149.82 56.48 149.82 54.19L149.82 54.19L149.82 48.21Q149.82 45.92 148.61 44.71Q147.40 43.50 145.20 43.50L145.20 43.50Q143 43.50 141.79 44.71Q140.58 45.92 140.58 48.21L140.58 48.21L140.58 54.19Q140.58 56.48 141.79 57.69Q143 58.90 145.20 58.90ZM167.29 71.22L161.79 71.22L161.79 39.10L167.16 39.10L167.16 43.54Q167.82 41.26 169.53 39.96Q171.25 38.66 173.80 38.66L173.80 38.66Q176.13 38.66 177.91 39.80Q179.70 40.95 180.69 43.04Q181.68 45.13 181.68 47.90L181.68 47.90L181.68 54.46Q181.68 58.64 179.52 61.19Q177.36 63.74 173.80 63.74L173.80 63.74Q171.25 63.74 169.51 62.42Q167.77 61.10 167.11 58.72L167.11 58.72L167.29 64.44L167.29 71.22ZM171.73 58.99L171.73 58.99Q173.84 58.99 175.01 57.84Q176.18 56.70 176.18 54.32L176.18 54.32L176.18 48.08Q176.18 45.70 175.01 44.56Q173.84 43.41 171.73 43.41L171.73 43.41Q169.62 43.41 168.45 44.69Q167.29 45.96 167.29 48.30L167.29 48.30L167.29 54.10Q167.29 56.44 168.45 57.71Q169.62 58.99 171.73 58.99ZM198.04 63.74L198.04 63.74Q194.96 63.74 192.68 62.55Q190.39 61.36 189.13 59.19Q187.88 57.01 187.88 54.06L187.88 54.06L187.88 48.34Q187.88 45.39 189.13 43.21Q190.39 41.04 192.68 39.85Q194.96 38.66 198.04 38.66L198.04 38.66Q201.08 38.66 203.35 39.85Q205.61 41.04 206.87 43.17Q208.12 45.30 208.12 48.16L208.12 48.16L208.12 52.56L193.16 52.56L193.16 54.24Q193.16 56.70 194.44 57.95Q195.71 59.21 198.04 59.21L198.04 59.21Q199.76 59.21 200.97 58.61Q202.18 58.02 202.40 56.88L202.40 56.88L207.86 56.88Q207.28 60 204.60 61.87Q201.92 63.74 198.04 63.74ZM193.16 48.16L193.16 48.16L193.16 49L202.84 48.96L202.84 48.12Q202.84 45.61 201.61 44.25Q200.38 42.88 198.04 42.88L198.04 42.88Q195.62 42.88 194.39 44.27Q193.16 45.66 193.16 48.16ZM221.45 71.22L214.76 71.22L214.76 66.25L221.14 66.25Q223.26 66.25 224.49 64.99Q225.72 63.74 225.72 61.58L225.72 61.58L225.72 44.07L214.54 44.07L214.54 39.10L231.22 39.10L231.22 61.72Q231.22 66.12 228.58 68.67Q225.94 71.22 221.45 71.22L221.45 71.22ZM228.18 35.05L228.18 35.05Q226.51 35.05 225.54 34.19Q224.58 33.34 224.58 31.88L224.58 31.88Q224.58 30.43 225.54 29.57Q226.51 28.72 228.18 28.72L228.18 28.72Q229.86 28.72 230.82 29.57Q231.79 30.43 231.79 31.88L231.79 31.88Q231.79 33.34 230.82 34.19Q229.86 35.05 228.18 35.05ZM251.72 63.70L249.79 63.70Q245.48 63.70 242.97 61.74Q240.46 59.78 240.46 56.44L240.46 56.44L245.87 56.44Q245.87 57.84 246.91 58.59Q247.94 59.34 249.79 59.34L249.79 59.34L251.72 59.34Q253.70 59.34 254.78 58.59Q255.86 57.84 255.86 56.44L255.86 56.44Q255.86 55.12 255.11 54.48Q254.36 53.84 252.82 53.62L252.82 53.62L246.80 52.83Q243.89 52.43 242.33 50.58Q240.77 48.74 240.77 45.79L240.77 45.79Q240.77 42.36 243.06 40.53Q245.34 38.70 249.66 38.70L249.66 38.70L251.68 38.70Q255.73 38.70 258.19 40.55Q260.66 42.40 260.74 45.48L260.74 45.48L255.29 45.48Q255.24 44.34 254.28 43.65Q253.31 42.97 251.68 42.97L251.68 42.97L249.66 42.97Q247.90 42.97 246.97 43.70Q246.05 44.42 246.05 45.66L246.05 45.66Q246.05 46.76 246.73 47.28Q247.41 47.81 248.73 47.94L248.73 47.94L254.41 48.74Q257.75 49.13 259.45 51.09Q261.14 53.05 261.14 56.35L261.14 56.35Q261.14 59.87 258.74 61.78Q256.34 63.70 251.72 63.70L251.72 63.70Z" fill="#b6ff3b"/>
  <rect x="269.28" y="31.62" width="21.68" height="31.68" fill="#b6ff3b"/>
</svg>
